# xmcd
#
# Track frame offsets:
#  150
#  21102
#  46556
#  61971
#  80590
#  102901
#  132410
#  148736
#  164530
#  186978
#  209770
#  230771
#
# Disc length: 3462 seconds
#
# Revision: 0
# Processed by: cddbd v1.5.1PL2 Copyright (c) Steve Scherf et al.
# Submitted via: Collectorz.com_Music_Collector 6.11
#
DISCID=af0d840c
DTITLE=John Earl Walker Band - Little Miss Perfect
DYEAR=2002
DGENRE=Blues -  Blues Rock
TTITLE0=Last Time Out
TTITLE1=Hurricane
TTITLE2=It's Me
TTITLE3=What You Gonna Do
TTITLE4=It's A Shame
TTITLE5=Follow My Heart
TTITLE6=Comin' Home
TTITLE7=She Looks At Me
TTITLE8=You Let Me Down
TTITLE9=Gave You My Heart
TTITLE10=Little Miss Perfect
TTITLE11=Can't Let You Be
EXTD=
EXTT0=
EXTT1=
EXTT2=
EXTT3=
EXTT4=
EXTT5=
EXTT6=
EXTT7=
EXTT8=
EXTT9=
EXTT10=
EXTT11=
PLAYORDER=
